<svg id="Layer_1" data-name="Layer 1" xmlns="http://www.w3.org/2000/svg" xmlns:xlink="http://www.w3.org/1999/xlink" viewBox="0 0 580.54 475.1"><defs><linearGradient id="linear-gradient" x1="432.31" y1="413.63" x2="428.55" y2="612.06" gradientUnits="userSpaceOnUse"><stop offset="0" stop-color="#010101" stop-opacity="0"/><stop offset="0.95" stop-color="#010101"/></linearGradient><linearGradient id="linear-gradient-2" x1="312.38" y1="504.55" x2="297.39" y2="-99.31" xlink:href="#linear-gradient"/><linearGradient id="linear-gradient-3" x1="240.09" y1="380.93" x2="480.31" y2="144.8" xlink:href="#linear-gradient"/><linearGradient id="linear-gradient-4" x1="220.07" y1="212.23" x2="351.08" y2="212.23" gradientUnits="userSpaceOnUse"><stop offset="0" stop-color="#fff" stop-opacity="0"/><stop offset="0.95" stop-color="#fff"/></linearGradient><linearGradient id="linear-gradient-5" x1="220.1" y1="170.39" x2="235.1" y2="170.39" xlink:href="#linear-gradient"/><linearGradient id="linear-gradient-6" x1="311.77" y1="167.56" x2="335.04" y2="117.53" xlink:href="#linear-gradient"/><linearGradient id="linear-gradient-7" x1="310.16" y1="129.49" x2="355.11" y2="129.49" xlink:href="#linear-gradient"/><linearGradient id="linear-gradient-8" x1="330.86" y1="308.19" x2="235.78" y2="301.03" xlink:href="#linear-gradient"/><linearGradient id="linear-gradient-9" x1="315.02" y1="290.81" x2="215.35" y2="341.42" xlink:href="#linear-gradient"/><linearGradient id="linear-gradient-10" x1="335.49" y1="250.87" x2="-158.21" y2="369.52" xlink:href="#linear-gradient"/><linearGradient id="linear-gradient-11" x1="340.67" y1="199.96" x2="295.94" y2="267.92" xlink:href="#linear-gradient"/><linearGradient id="linear-gradient-12" x1="391.42" y1="428.41" x2="453.93" y2="386.74" xlink:href="#linear-gradient-4"/><linearGradient id="linear-gradient-13" x1="483.37" y1="430.23" x2="526.05" y2="454.25" xlink:href="#linear-gradient-4"/><linearGradient id="linear-gradient-14" x1="467.33" y1="439.23" x2="448.25" y2="466.83" xlink:href="#linear-gradient-4"/><linearGradient id="linear-gradient-15" x1="452.15" y1="428.74" x2="433.07" y2="456.34" xlink:href="#linear-gradient-4"/><linearGradient id="linear-gradient-16" x1="452.15" y1="431.85" x2="455.99" y2="393.26" xlink:href="#linear-gradient-4"/><linearGradient id="linear-gradient-17" x1="468.72" y1="433.49" x2="472.55" y2="394.89" xlink:href="#linear-gradient-4"/><linearGradient id="linear-gradient-18" x1="479.91" y1="431.37" x2="483.39" y2="396.27" xlink:href="#linear-gradient-4"/><linearGradient id="linear-gradient-19" x1="434.23" y1="422.47" x2="470.52" y2="339.92" xlink:href="#linear-gradient"/><linearGradient id="linear-gradient-20" x1="452.76" y1="384.05" x2="570.84" y2="554.27" xlink:href="#linear-gradient"/><linearGradient id="linear-gradient-21" x1="391.13" y1="375.03" x2="509.21" y2="545.25" xlink:href="#linear-gradient"/><linearGradient id="linear-gradient-22" x1="474.91" y1="439.34" x2="508.98" y2="491.29" xlink:href="#linear-gradient"/></defs><title>Soccer</title><path d="M604.51,359.61c-.14.36-.25.69-.4,1.05-17.32,45.86-39.25,94.44-82.2,118.08-35,19.24-77.12,18.05-117,16.38q-97-4.14-194-8.25c-29.78-1.27-60.28-2.68-87.8-14.12C85.61,457.21,57.44,422.28,48,383a118.88,118.88,0,0,1-3.31-34.57c2.22-42.74,25.67-82.35,26.8-125.08.83-31.41-10.35-64.16,1-93.47C87.94,90,136.37,76.1,178.31,67.46,267.16,49.13,463.41-35.4,519.62,82c9.26,19.35,12.13,41.5,23.06,60,16.52,27.92,48.8,43.24,66.73,70.29C637.63,254.89,622.56,311.68,604.51,359.61Z" transform="translate(-44.53 -20.88)" fill="#8a36b7" opacity="0.24" style="isolation:isolate"/><path d="M604.51,359.61c-.14.36-.25.69-.4,1.05-17.32,45.86-39.25,94.44-82.2,118.08-35,19.24-77.12,18.05-117,16.38q-97-4.14-194-8.25c-29.78-1.27-60.28-2.68-87.8-14.12C85.61,457.21,57.44,422.28,48,383c3.77-.73,7.73-1.45,11.87-2.29,9.1-1.83,17.9-5.11,27-6.69a43,43,0,0,1,12.41-.39c4.4.53,9.74,4,12.48-.07a8.75,8.75,0,0,0,1.54,2.51l1.49-1.71a3.52,3.52,0,0,0,.2,2.15,10.2,10.2,0,0,0,3-3.38c1,5.4,6.28,8.16,11,9.85,4,1.41,12.86,5.17,16.68,3a3.88,3.88,0,0,0,2-2.47l.07,4a8.16,8.16,0,0,0,2.47-2.69,28.86,28.86,0,0,1,.78,3.67l1.95-3.14c.78,1.22.83,2.87,1.87,3.87a5,5,0,0,0,1.43.87c6.36,2.95,13,4.8,19.71,6.72,49.56,14.12,99.74,26.9,151.15,31.88,64.16,6.2,131.08-.33,188.49-29.67,3.48-1.74,7.11-3.85,8.71-7.37a7.18,7.18,0,0,0-.91-7.19l8.35,4.57q4.47-4.12,9-8.2c2.94,3.85,5.84,7.7,8.79,11.58Q577,376,604.51,359.61Z" transform="translate(-44.53 -20.88)" fill="#8a36b7" opacity="0.6" style="isolation:isolate"/><ellipse cx="432" cy="429.78" rx="33.41" ry="5.12" fill="url(#linear-gradient)"/><path d="M218.23,415.59c-1.26,4.78,4.22,8.27,8.35,11s7.44,9.52,3.08,11.87a8,8,0,0,1-3.71.65,507.4,507.4,0,0,1-82-5.69c4.07,11.12,18,14.35,29.74,15.76a1137.88,1137.88,0,0,0,247,2.49c21.65-2.14,46.7-7.23,56.34-26.74-2.54,5.15-24.29,9.79-29.66,11.29a176.81,176.81,0,0,1-31.2,5.8,455.1,455.1,0,0,1-62.23,1.47A441.64,441.64,0,0,1,218.23,415.59Z" transform="translate(-44.53 -20.88)" fill="url(#linear-gradient-2)"/><path d="M356,237.14c6.51,4.25,13.76,7.2,21.07,9.84a300.26,300.26,0,0,0,34,10.06c.77.18,1.77.26,2.17-.43.87-1.52-2.73-2.22-2.76-4a18.66,18.66,0,0,1,12.77,2.44c1.12.69,2.82,1.39,3.52.28.48-.75,0-1.73-.52-2.45a23.32,23.32,0,0,0-22.81-9.11,12.59,12.59,0,0,1-3.6.43,9.35,9.35,0,0,1-4-1.74c-8.3-5.32-16.11-11.68-25.36-15.1-3-1.12-6.3-2-8.65-4.19a20.54,20.54,0,0,1-3.76-5.66c-2.69-5.15-8.21-11.74-12.55-18.11-.94-1.38-4.32,11.28-4.75,12.21-1.35,2.93-2.34,6.3-.78,9.25C343.47,227.37,350,233.2,356,237.14Z" transform="translate(-44.53 -20.88)" fill="#f1b475"/><path d="M220.85,352.13a9.05,9.05,0,0,0-7.63,6.06c-1.23,4.27,1.44,8.57,2.45,12.89,2.21,9.54-3.75,19.8-.7,29.11,1.05,3.21,4.29,6.42,7.41,5.12,1.86-.78,2.79-2.84,3.54-4.72l6-15a55.66,55.66,0,0,0,2.94-8.73C237,367.25,233.88,350.5,220.85,352.13Z" transform="translate(-44.53 -20.88)" fill="#606161"/><path d="M327.55,354c4,5.67,5.95,12.56,9.33,18.65a78.11,78.11,0,0,0,10.31,13.61,383.9,383.9,0,0,0,47,44.35c4.34-.31,7.43-4.84,7.61-9.19s-2-3.85-4.06-7.69c-8.73-16.19-21.42-33-32.72-47.55-4.33-5.57-7.11-13.56-11.45-19.13-8-10.29-16-20.59-24.65-30.36a5,5,0,0,0-2.45-1.81,5,5,0,0,0-3.12.68c-6.67,3.08-18.2,9.18-14.19,18.05C312.86,341.84,322.37,346.67,327.55,354Z" transform="translate(-44.53 -20.88)" fill="#f1b475"/><path d="M280.19,333.92a186.59,186.59,0,0,0-51.55,23.66,3.53,3.53,0,0,0-1.4,1.36,3.62,3.62,0,0,0,.16,2.58l1.3,4.06c.58,1.84,1.31,3.85,3,4.75,2,1,4.37.15,6.47-.64,17-6.35,35.87-4.12,53.93-6,2.72-.29,5.53-.71,7.83-2.18,2.48-1.59,4.1-4.21,5.38-6.87,2.93-6.09,4.5-13.12,2.79-19.66a4.73,4.73,0,0,0-1.13-2.28,4.87,4.87,0,0,0-2-1,58.34,58.34,0,0,0-15.27-2.73C283.92,328.65,281.43,328.09,280.19,333.92Z" transform="translate(-44.53 -20.88)" fill="#f1b475"/><path d="M307.32,349.66c-5.12-1.38-11.15-2-14.38-3.89-2-1.12-4-2.43-6.21-2.79a15.56,15.56,0,0,0-5.66.62q-15.58,3.81-31.08,7.55c-1.86.43-3.82.94-5.16,2.29-1.53,1.52-2,3.84-2.07,6a28.38,28.38,0,0,0,.87,8.57,56.42,56.42,0,0,0-5.45,1.7c-2.1.76-4.5,1.67-6.46.62-1.7-.87-2.43-2.91-3-4.76l-1.31-4a3.57,3.57,0,0,1-.14-2.58,3.4,3.4,0,0,1,1.38-1.38A187.28,187.28,0,0,1,280.2,333.9c1.23-5.81,3.74-5.26,9.47-5A60.54,60.54,0,0,1,305,331.61a5.2,5.2,0,0,1,2,1.06,4.69,4.69,0,0,1,1.13,2.28A26.47,26.47,0,0,1,307.32,349.66Z" transform="translate(-44.53 -20.88)" fill="url(#linear-gradient-3)"/><path d="M351.07,203.19a5.5,5.5,0,0,1-1.16,2.61c-2.29,3.56-4.58,7.08-6.86,10.6-2.11,3.31-4.25,6.58-6.36,9.84-2.14-2.76-4.25-5.55-6.39-8.35a8.22,8.22,0,0,1,.15.84c2.14,12.2-.84,24.91,1.12,37.18,1,6,3.13,11.8,3.56,17.86a3.82,3.82,0,0,1-.4,2.47c-.76,1.13-2.32,1.2-3.67,1.13q-30-1.1-59.83-2.15c-2.55-.1-5.12-.21-7.66-.29a3.94,3.94,0,0,1-2.36-.58,4.17,4.17,0,0,1-1.35-2.5c-3.67-14.71-7.41-29.59-7.41-44.74,0-9.62,1.49-19.17,1.42-28.79,0-1.89-.14-3.92-1.2-5.52a6.6,6.6,0,0,0-1.41-1.56c-3.93-3-11.22-1-15.4-4.39a13.81,13.81,0,0,1-3-4.07c-3.56-6.39-7.12-12.74-10.68-19.1-1.45-2.61-2.9-5.73-1.6-8.42,18.6,1.78,36.71-11,55.09-7.59,6.13,0,21.77,3.23,27.91,4.14,6.75,1,3.64,3.16,10.36,4.94,8.38,2.18,17.32,4.72,22.76,11.43,7,8.65,6,21.54,12.42,30.61C350.05,200.14,351.22,201.55,351.07,203.19Z" transform="translate(-44.53 -20.88)" fill="#8a36b7"/><path d="M351.07,203.19a5.5,5.5,0,0,1-1.16,2.61c-2.29,3.56-4.58,7.08-6.86,10.6-2.11,3.31-4.25,6.58-6.36,9.84-2.14-2.76-4.25-5.55-6.39-8.35a8.22,8.22,0,0,1,.15.84c2.14,12.2-.84,24.91,1.12,37.18,1,6,3.13,11.8,3.56,17.86a3.82,3.82,0,0,1-.4,2.47c-.76,1.13-2.32,1.2-3.67,1.13q-30-1.1-59.83-2.15c-2.55-.1-5.12-.21-7.66-.29a3.94,3.94,0,0,1-2.36-.58,4.17,4.17,0,0,1-1.35-2.5c-3.67-14.71-7.41-29.59-7.41-44.74,0-9.62,1.49-19.17,1.42-28.79,0-1.89-.14-3.92-1.2-5.52a6.6,6.6,0,0,0-1.41-1.56c-3.93-3-11.22-1-15.4-4.39a13.81,13.81,0,0,1-3-4.07c-3.56-6.39-7.12-12.74-10.68-19.1-1.45-2.61-2.9-5.73-1.6-8.42,18.6,1.78,36.71-11,55.09-7.59,6.13,0,21.77,3.23,27.91,4.14,6.75,1,3.64,3.16,10.36,4.94,8.38,2.18,17.32,4.72,22.76,11.43,7,8.65,6,21.54,12.42,30.61C350.05,200.14,351.22,201.55,351.07,203.19Z" transform="translate(-44.53 -20.88)" fill="url(#linear-gradient-4)"/><path d="M220.34,160.71s-.68-5,.23-5.45,6.6,8.94,6.6,8.94,7,19.19,7.86,20.92-6-1.92-10-8.57S220.34,160.71,220.34,160.71Z" transform="translate(-44.53 -20.88)" fill="#8a36b7"/><path d="M220.34,160.71s-.68-5,.23-5.45,6.6,8.94,6.6,8.94,7,19.19,7.86,20.92-6-1.92-10-8.57S220.34,160.71,220.34,160.71Z" transform="translate(-44.53 -20.88)" fill="url(#linear-gradient-5)"/><path d="M302.65,151.87a7.38,7.38,0,0,0-2.24,3.11c-.51,1.8.32,3.68,1.19,5.34,1.5,2.84,6.77,15.27,12.92,9.64,4.76-4.37,7.19-6.63,7-7.86-.29-1.7-1.85-12.57-2.55-14.16a6.22,6.22,0,0,0-1.26-2C312.75,141.13,305.88,148.78,302.65,151.87Z" transform="translate(-44.53 -20.88)" fill="#f1b475"/><path d="M313.28,146.58s-3.38,20.72,3.82,21.49l7.09-9.49Z" transform="translate(-44.53 -20.88)" fill="url(#linear-gradient-6)"/><path d="M349.15,145.56c-1.53,2.71-3.36,5.41-3.62,8.51-.12,1.5.08,3.16-.84,4.35-.73,1-2,1.3-3,1.84-3.82,2-6,6.74-10.16,7.6a8.28,8.28,0,0,1-6.72-2,24.29,24.29,0,0,1-4.59-5.59c-3-4.47-6.05-9.13-6.87-14.44-1.27-8.16,3.52-16.79,11-20.32a21.43,21.43,0,0,1,23,3.72C352.17,133.68,352.25,140.1,349.15,145.56Z" transform="translate(-44.53 -20.88)" fill="#f1b475"/><path d="M355.09,127.44a10.46,10.46,0,0,1-1,4.35,4.93,4.93,0,0,1-3.44,2.66c-2.61.39-5.13-1.92-7.7-1.32-.79.18-1.51.64-2.31.76-1.29.21-2.54-.46-3.77-.93-3.17-1.21-7.19-1-9.44,1.59a21,21,0,0,0-2.34,4.14,1.48,1.48,0,0,1-.64.73c-.81.34-1.48-.83-1.33-1.69s.66-1.72.41-2.56a2.06,2.06,0,0,0-2.88-.94,5,5,0,0,0-2.09,2.67c-.66,1.49-1.11,3.35-.1,4.63a1.24,1.24,0,0,1,.38.73,1,1,0,0,1-.31.54l-5.88,6.37c-1.32-1.53-1.61-3.67-1.83-5.68-.63-5.56-1.23-11.35.64-16.62a26.5,26.5,0,0,1,5-8.18,27.3,27.3,0,0,1,7.68-6.57,19.53,19.53,0,0,1,15.25-1.35c4.38,1.45,7.65,4.35,10.83,7.56C353,121.22,355.38,122.83,355.09,127.44Z" transform="translate(-44.53 -20.88)" fill="#606161"/><path d="M355.09,127.44a10.46,10.46,0,0,1-1,4.35,4.93,4.93,0,0,1-3.44,2.66c-2.61.39-5.13-1.92-7.7-1.32-.79.18-1.51.64-2.31.76-1.29.21-2.54-.46-3.77-.93-3.17-1.21-7.19-1-9.44,1.59a21,21,0,0,0-2.34,4.14,1.48,1.48,0,0,1-.64.73c-.81.34-1.48-.83-1.33-1.69s.66-1.72.41-2.56a2.06,2.06,0,0,0-2.88-.94,5,5,0,0,0-2.09,2.67c-.66,1.49-1.11,3.35-.1,4.63a1.24,1.24,0,0,1,.38.73,1,1,0,0,1-.31.54l-5.88,6.37c-1.32-1.53-1.61-3.67-1.83-5.68-.63-5.56-1.23-11.35.64-16.62a26.5,26.5,0,0,1,5-8.18,27.3,27.3,0,0,1,7.68-6.57,19.53,19.53,0,0,1,15.25-1.35c4.38,1.45,7.65,4.35,10.83,7.56C353,121.22,355.38,122.83,355.09,127.44Z" transform="translate(-44.53 -20.88)" fill="url(#linear-gradient-7)"/><path d="M331.06,277.38s-1.71,23.31-5.78,31.46S305.07,338,305.07,338l-37.38-12.86,9.89-22.68L293,273.6Z" transform="translate(-44.53 -20.88)" fill="#8a36b7"/><path d="M331.06,277.38s-1.71,23.31-5.78,31.46S305.07,338,305.07,338l-37.38-12.86,9.89-22.68L293,273.6Z" transform="translate(-44.53 -20.88)" fill="url(#linear-gradient-8)"/><path d="M273.73,317.51c8.17,7.28,19.6,10.18,27.56,17.7a10.52,10.52,0,0,0,3.78,2.77c3.13,1,6.16-1.6,8.44-4l17.66-18.31c1.15-1.2,2.39-2.63,2.21-4.28a5.68,5.68,0,0,0-1.48-2.78L310,281.19a22.21,22.21,0,0,0-5.16-5.17c-3.43-2.19-7.74-2.34-11.81-2.42-8.3-.16-16.6-.38-24.9-.48-8.65-.11-8.31,2.37-7.92,10.56a61.6,61.6,0,0,0,3.49,18.58C264.72,305.11,269.9,317.51,273.73,317.51Z" transform="translate(-44.53 -20.88)" fill="#8a36b7"/><path d="M273.73,317.51c8.17,7.28,19.6,10.18,27.56,17.7a10.52,10.52,0,0,0,3.78,2.77c3.13,1,6.16-1.6,8.44-4l17.66-18.31c1.15-1.2,2.39-2.63,2.21-4.28a5.68,5.68,0,0,0-1.48-2.78L310,281.19a22.21,22.21,0,0,0-5.16-5.17c-3.43-2.19-7.74-2.34-11.81-2.42-8.3-.16-16.6-.38-24.9-.48-8.65-.11-8.31,2.37-7.92,10.56a61.6,61.6,0,0,0,3.49,18.58C264.72,305.11,269.9,317.51,273.73,317.51Z" transform="translate(-44.53 -20.88)" fill="url(#linear-gradient-9)"/><path d="M247.43,349.93a6.67,6.67,0,0,0,0-2.48,1.89,1.89,0,0,0-1.77-1.48,2.76,2.76,0,0,0-1.54.91,36.6,36.6,0,0,1-13.11,7.7,11.77,11.77,0,0,0-3.58,1.59,7.44,7.44,0,0,0-2.43,4.4,13.79,13.79,0,0,0,2.23,10.69,3.27,3.27,0,0,0,1.46,1.3,3.77,3.77,0,0,0,1.64.1l3.76-.35a16.26,16.26,0,0,0,3.81-.66,26.51,26.51,0,0,0,3.31-1.6c2.89-1.46,8.56-1.33,8.77-5.52.11-2.27-1.45-4.64-2-6.81A21.74,21.74,0,0,1,247.43,349.93Z" transform="translate(-44.53 -20.88)" fill="#fff"/><path d="M386.65,415.35A18,18,0,0,0,383.5,417a3.73,3.73,0,0,0-1.69,3c.06,1.53,1.37,2.67,2.58,3.61L394,431a8.56,8.56,0,0,0,2.53,1.53c2.84.92,5.78-1.32,7.31-3.88a6.45,6.45,0,0,0,1.1-4.37,8,8,0,0,0-1.6-3.13c-2.26-3.14-4.88-8.28-8-10.57-2-1.45-2.14,0-3.86,1.61A18.89,18.89,0,0,1,386.65,415.35Z" transform="translate(-44.53 -20.88)" fill="#fff"/><path d="M395.28,433.32a7.29,7.29,0,0,0-.5,3.08c0,4,.78,8.17,3.3,11.27s7.1,4.75,10.68,3c3.26-1.62,4.77-5.37,7.29-8,3.43-3.59,9-5.37,10.74-10a8,8,0,0,0-3.23-9.14c-3.69-2.38-8.4-.43-12.45-.39-3,0-5.07-.23-7.43,1.88-1.65,1.47-2.79,3.35-4.53,4.75C397.8,430.81,396,431.62,395.28,433.32Z" transform="translate(-44.53 -20.88)" fill="#606161"/><path d="M189.66,160.86a70.57,70.57,0,0,0-13.88,3.7q-14.09,4.83-28,10.15c-3,1.15-6.16,2.39-8.48,4.67s-3.62,5.91-2.26,8.87a4.14,4.14,0,0,0,4.11,2.6,6.15,6.15,0,0,0,2.18-1l7.27-4.55a16,16,0,0,1,.74,7c2.16.74,4.43-.95,5.63-2.89s1.85-4.24,3.38-5.94c2.94-3.24,8-3.15,12.35-2.78,9.85.84,19.82,1.82,29.58.21,8.63-1.42,17.25-4.85,25.85-3.27,1,.18,2.28.33,2.83-.53a2.43,2.43,0,0,0,.09-1.84,49.31,49.31,0,0,0-3.87-11.07c-3-6.13-11.42-2.73-16.92-2.92C203.39,161.05,196.51,160,189.66,160.86Z" transform="translate(-44.53 -20.88)" fill="#f1b475"/><path d="M281.94,274.32l1.14,14.51A29.49,29.49,0,0,0,295,310.24l24.5,18c-.51.77-2.94,2.43-4.85,4.6-.56.63-5.74,4.86-6.39,4.35-.51-.35-25.48-11.59-39.79-24.88-7.06-6.55-9.54-33.91-7-38.14.88-1.47-1.57-2.22-1.6-2.32-3.67-14.71-7.41-29.59-7.41-44.74,0-9.62,1.49-19.17,1.42-28.79,0-1.89-.14-3.92-1.2-5.52a6.6,6.6,0,0,0-1.41-1.56s9.47-.51,14.05,3.6,2.83,15.57,2.83,27.85,9.69,35.8,9.69,35.8Z" transform="translate(-44.53 -20.88)" fill="url(#linear-gradient-10)"/><path d="M336.69,226.24c-2.14-2.76-4.25-5.55-6.39-8.35a8.22,8.22,0,0,1,.15.84,47.6,47.6,0,0,1-1.42-7c-.18-2.32,1-4.21.8-6.53-.11-1.56.84-8.24.15-9.19q6,7.51,11.54,15.47a4.69,4.69,0,0,1,1.2,3.12,8.86,8.86,0,0,0,.33,1.85C340.94,219.71,338.8,223,336.69,226.24Z" transform="translate(-44.53 -20.88)" fill="url(#linear-gradient-11)"/><path d="M523.43,384.48c-1.09-.58-2.18-1.2-3.27-1.78A4.42,4.42,0,0,1,523.43,384.48Z" transform="translate(-44.53 -20.88)" fill="#8a36b7"/><circle cx="427.53" cy="404.34" r="28.6" fill="#8a36b7"/><circle cx="427.53" cy="404.34" r="28.6" fill="url(#linear-gradient-12)"/><path d="M485.25,444.75l3.57-13.93,7-7,4,2.81s.26,12.78-9.83,19.81Z" transform="translate(-44.53 -20.88)" fill="url(#linear-gradient-13)"/><path d="M463.91,436.44l11.5,11.63-3.35,5.75s-14.54-2.56-19-8.31l2.56-10.73Z" transform="translate(-44.53 -20.88)" fill="url(#linear-gradient-14)"/><path d="M444.23,420.08l9.45,7,3.58,10.1-3.32,9.07s-9.71-5.62-10.74-19.42Z" transform="translate(-44.53 -20.88)" fill="url(#linear-gradient-15)"/><polygon points="437.27 392.69 435.35 403.3 444.3 409.94 452.6 403.55 448.64 392.31 437.27 392.69" fill="#8a36b7"/><path d="M462.71,406.37l-4.94,14.82L452,425.11l-6.65-4.6s-.48-12.92,13.12-18.4Z" transform="translate(-44.53 -20.88)" fill="url(#linear-gradient-16)"/><path d="M481.75,413.75l-1.85,10.42-15,2-5.88-6.83,3.66-12.93L472.6,405A82.69,82.69,0,0,1,481.75,413.75Z" transform="translate(-44.53 -20.88)" fill="url(#linear-gradient-17)"/><path d="M493.37,407.39l-1.2,5.81-8.93.33-11.66-9.88,2.29-5.3C487.09,398.71,493.37,407.39,493.37,407.39Z" transform="translate(-44.53 -20.88)" fill="url(#linear-gradient-18)"/><path d="M473.87,398.36,472.6,405l-9.46,2.43-6.77-2-.39-2.94S464,394.78,473.87,398.36Z" transform="translate(-44.53 -20.88)" fill="#8a36b7"/><polygon points="406.08 404.06 414.52 398.44 423.08 406.11 420.91 417.86 409.92 417.1 406.08 404.06" fill="#8a36b7"/><polygon points="452.61 403.54 444.3 409.93 435.37 403.29 437.22 392.87 437.25 392.69 438.71 392.65 447.64 392.32 448.66 392.29 452.61 403.54" fill="url(#linear-gradient-19)"/><path d="M473.87,398.36,472.6,405l-9.46,2.43-6.77-2-.39-2.94S464,394.78,473.87,398.36Z" transform="translate(-44.53 -20.88)" fill="url(#linear-gradient-20)"/><polygon points="406.08 404.06 414.52 398.44 423.08 406.11 420.91 417.86 409.92 417.1 406.08 404.06" fill="url(#linear-gradient-21)"/><path d="M472.47,451.52l.76-5.24,12.66-4.22,4.09,4.35S482.69,454.59,472.47,451.52Z" transform="translate(-44.53 -20.88)" fill="#8a36b7" opacity="0.6" style="isolation:isolate"/><path d="M472.47,451.52l.76-5.24,12.66-4.22,4.09,4.35S482.69,454.59,472.47,451.52Z" transform="translate(-44.53 -20.88)" fill="url(#linear-gradient-22)"/></svg>